<svg xmlns="http://www.w3.org/2000/svg" width="200" height="124" viewBox="0 0 200 124"><path d="M9.25,10.187c3.126-.124,10.75-.374,14.626-1.25-.126,1.626-.376,6.626-.376,16.126v4.25c3.5-2.876,6.376-4.376,9.876-4.376a10.3,10.3,0,0,1,9,4.626,19.613,19.613,0,0,1,2.5,10.126c0,11.624-5.5,18.25-16.626,18.25a20.97,20.97,0,0,1-8.75-2.126c-1.5.5-3.5,1.5-5.5,2.126l-.626-.376c.126-3.376.126-9.75.126-18.376v-16c0-4-.126-6.75-.25-9.124-.126-1.626-.5-1.876-4.25-1.876Zm19,45.376c4.25,0,6.25-5.126,6.25-14.626a20.645,20.645,0,0,0-1.75-9.25,4.507,4.507,0,0,0-4-2.5,5.756,5.756,0,0,0-4.626,2.75c-.624.876-.874,1.626-.874,11.5,0,8.126.376,8.376.876,9.376A4.5,4.5,0,0,0,28.25,55.563Zm38.5,1.626c-2.626,0-5.25-.252-9.376-.252-4.374,0-6.5.252-8.624.252V55.063c3.5-.126,4-.75,4.126-2.126.124-1.5.25-3.874.25-7.75v-8c0-3.25,0-5.874-.126-7s-.626-1.5-3.876-1.374V26.687c4.376-.374,9.626-.5,13.876-1.374-.126,1.626-.25,4.626-.25,11.5v8.626c0,4,.126,5.75.25,7.5s.626,2,3.75,2.374ZM57.374,10.813c3.252,0,5.126,1.876,5.126,5.25,0,2.876-2.126,4.876-5.376,4.876a4.659,4.659,0,0,1-4.874-4.876,4.955,4.955,0,0,1,5.126-5.25ZM70,10.187a92.172,92.172,0,0,0,13.626-1.25q-.253,7.747-.252,15.5V40.063c2.376-.626,7.5-6.876,9.5-10.5.376-.75.376-1.126-.624-1.126l-2.75-.25V26.063c4.626.126,9.376-.126,14.126-.376v2.126c-3.5.376-4.876.626-6.252,1.75a58.488,58.488,0,0,0-6,6.25c1.5,3.126,7.752,14.626,10.126,17.75a3.485,3.485,0,0,0,3.126,1.5l1.748.126-.124,2.124a92.664,92.664,0,0,0-13.876.75c-1.5-3.5-6-12-7.374-14.626-.75-1.374-1.126-1.874-1.626-1.75,0,5.126-.124,7.626.126,11.25.126,1.626.5,2.126,3.876,2.25v2.126c-2.376,0-4.876-.25-9-.25-4.876,0-7,.25-8.876.25V55.187c3.25-.124,3.75-.748,3.876-2,.124-1.5.248-4.75.248-11.25V25.813c0-5.126,0-9-.124-12.25q0-1.125-1.5-1.126H69.874ZM39.876,88.063c-2.126,6.75-6.25,10-13.126,10-5.876,0-9.626-1.626-12.25-5.126-2-2.624-3-6.5-3-10.874,0-9.626,5.876-17,16.626-17,6.5,0,11.25,3,11.25,7.876,0,3.374-2.75,4.748-5,4.748a5.672,5.672,0,0,1-2.5-.624A1.953,1.953,0,0,1,31,74.813a18.83,18.83,0,0,0,.376-2.626c0-3.124-1.126-4.624-3.5-4.624C24,67.563,22,73.189,22,80.939c0,3.124.376,6.624,1.5,8.748,1.25,2.876,3.25,4.5,6.25,4.5,3.75,0,6.126-2.124,7.876-7ZM47,78.939a69.837,69.837,0,0,0-.376-8.752,1.317,1.317,0,0,0-1.5-1.248h-2.25V66.813c3.75-.126,8.876-.376,12.5-1.5l.376.25c.25,1.5.5,5.126.626,7.376h.248c1.628-4.376,3.876-7.876,8.5-7.876a4.711,4.711,0,0,1,4.626,5c0,4.126-3.126,5.376-4.376,5.376a2.421,2.421,0,0,1-2.5-1.252c-.624-1.374-1-2.124-2.248-2.124-1.376,0-2.126,1.25-3,3.25a13.271,13.271,0,0,0-.626,4.5c0,7.126,0,11.126.126,12.876s.748,2.248,5.748,2.374l-.124,2.126c-3.5-.126-6.626-.252-10.25-.252-3.75,0-6.5.126-9.626.252l.374-2.126c3-.126,3.75-.5,3.75-1.75.126-1.75.25-5.126.25-9V78.937H47Zm42.376-5.75c0-3.752-1.252-5.752-3.752-5.752-2.874,0-4.248,1.626-4.248,4.626a13.953,13.953,0,0,0,.248,2.376,1.781,1.781,0,0,1-.748,1.874,6.832,6.832,0,0,1-3.5,1.126C75,77.439,73,76.311,73,73.563c0-4,5.876-8.5,14.126-8.5,6.748,0,9.748,2.75,10.874,4.5a6.281,6.281,0,0,1,1,3.376V91.313c0,2.126.626,2.626,1.376,2.626,1,0,2.124-1.626,2.624-4.376l2.126,1c-1.126,5.376-4.376,7.626-8.876,7.626-3.876,0-6-1.626-6.626-4.876-3,3-6.124,4.876-9.374,4.876-5.25,0-8.75-3.5-8.75-9.252,0-3.5,1.5-5.5,4.126-6.624,4.248-1.876,10.624-3.75,13.748-6V73.187ZM81.5,87.063c0,2.75,1.126,5.75,3.876,5.75,2,0,2.874-1.25,3.5-2.5a9.286,9.286,0,0,0,.374-3v-8.5c-1.376.876-3.5,1.876-5.126,2.876C82.624,82.689,81.5,83.937,81.5,87.063Zm24.75-20.874,4,.124v-2c.126-5.25,1.376-9.126,4.126-11.876a12.353,12.353,0,0,1,9.124-3.75c5.126,0,7.876,2.5,7.876,5.75,0,2.376-2,4-4.752,4a2.362,2.362,0,0,1-2.5-2.5c0-2.624-.374-4.748-2.248-4.748-1.252,0-2,1.124-2.252,3.25-.248,2,.126,5.75.376,11.624h6.126l-.376,2.5-5.75.376c-.126,2.374-.126,6.5-.126,11.374,0,4.626,0,8.75.126,12,.126,1.626.376,2.25,1.75,2.376a33.326,33.326,0,0,0,3.376.248l-.254,2.126c-2.374,0-6.124-.25-9.374-.25-3.376,0-7.376.25-9.626.25L106,94.937c3.25-.124,3.75-.5,3.876-1.874.248-2.126.248-5.376.248-9.75v-14.5l-4.248-.25.374-2.376Z" transform="translate(9 8.937)" fill="#fec63e"/><path d="M89.876,43.126,89.624,45.5,82,46c0,2.626-.126,6.5-.126,11.75,0,5.5,0,9.25.252,11.5.124,1.626.748,2.376,2,2.376,2.624,0,4.248-2.876,4.874-5.5h1L90.876,69c-1.5,3.626-5.252,6.126-10.752,6.126-3,0-5.624-1-6.874-2.5a6.887,6.887,0,0,1-1.25-4.5C72,63,72.25,51.5,72.25,46l-4-.376.25-2.374h3.75c.126-2.376.126-5.126.126-7.626A34.547,34.547,0,0,0,81.75,32l.75.126q-.328,5.556-.376,11.124h7.752v-.126Z" transform="translate(68.25 32)" fill="#fec63e"/><path d="M190,10V114H10V10ZM200,0H0V124H200Z" fill="#fec63e"/></svg>